<svg xmlns="http://www.w3.org/2000/svg" xmlns:xlink="http://www.w3.org/1999/xlink" width="32" height="32" viewBox="0 0 32 32">
  <defs>
    <clipPath id="clip-_1teammates">
      <rect width="32" height="32"/>
    </clipPath>
  </defs>
  <g id="_1teammates" data-name="1teammates" clip-path="url(#clip-_1teammates)">
    <rect width="32" height="32" fill="rgba(255,255,255,0)"/>
    <g id="Group_72" data-name="Group 72" transform="translate(-8750 -11413)">
      <g id="Ellipse_32" data-name="Ellipse 32" transform="translate(8756 11419)" fill="#67757e" stroke="#67757e" stroke-width="1">
        <circle cx="4.5" cy="4.5" r="4.5" stroke="none"/>
        <circle cx="4.5" cy="4.5" r="4" fill="none"/>
      </g>
      <g id="Ellipse_33" data-name="Ellipse 33" transform="translate(8768 11419)" fill="#67757e" stroke="#67757e" stroke-width="1">
        <circle cx="4.5" cy="4.5" r="4.5" stroke="none"/>
        <circle cx="4.5" cy="4.5" r="4" fill="none"/>
      </g>
      <g id="Rectangle_1505" data-name="Rectangle 1505" transform="translate(8751 11431)" fill="#67757e" stroke="#67757e" stroke-width="1">
        <path d="M7,0h6a7,7,0,0,1,7,7V9a0,0,0,0,1,0,0H0A0,0,0,0,1,0,9V7A7,7,0,0,1,7,0Z" stroke="none"/>
        <path d="M7,.5h6A6.5,6.5,0,0,1,19.5,7V8a.5.5,0,0,1-.5.5H1A.5.5,0,0,1,.5,8V7A6.5,6.5,0,0,1,7,.5Z" fill="none"/>
      </g>
      <g id="Subtraction_1" data-name="Subtraction 1" transform="translate(8756 11429)" fill="#67757e">
        <path d="M 24.50020980834961 10.49980068206787 L 18.3820915222168 10.49980068206787 C 18.46044921875 10.00548458099365 18.5000114440918 9.503261566162109 18.5000114440918 9.000000953674316 C 18.5000114440918 6.557796955108643 17.57626914978027 4.250959873199463 15.92945289611816 2.499800682067871 L 18 2.499800682067871 C 21.58423042297363 2.499800682067871 24.50020980834961 5.415780544281006 24.50020980834961 9.000000953674316 L 24.50020980834961 10.49980068206787 Z" stroke="none"/>
        <path d="M 24.00020980834961 9.999800682067871 L 24.00020980834961 9.000000953674316 C 24.00020980834961 5.69148063659668 21.30853080749512 2.999800682067871 18 2.999800682067871 L 17.00315093994141 2.999800682067871 C 18.29053497314453 4.712028026580811 19.0000114440918 6.803974151611328 19.0000114440918 9.000000953674316 C 19.0000114440918 9.334273338317871 18.9834156036377 9.668136596679688 18.95042419433594 9.999800682067871 L 24.00020980834961 9.999800682067871 M 25.00020980834961 10.99980068206787 L 24.99920082092285 10.99980068206787 L 17.77699089050293 10.99980068206787 C 17.92465019226074 10.34913063049316 18.0000114440918 9.676711082458496 18.0000114440918 9.000000953674316 C 18.0000114440918 6.270110607147217 16.78157997131348 3.718630790710449 14.65714073181152 1.999800682067871 L 18 1.999800682067871 C 21.85993003845215 1.999800682067871 25.00020980834961 5.140080451965332 25.00020980834961 9.000000953674316 L 25.00020980834961 10.99880027770996 L 25.00020980834961 10.99980068206787 Z" stroke="none" fill="#67757e"/>
      </g>
    </g>
  </g>
</svg>
