<svg xmlns="http://www.w3.org/2000/svg" xmlns:xlink="http://www.w3.org/1999/xlink" width="32" height="32" viewBox="0 0 32 32">
  <defs>
    <clipPath id="clip-_2bots">
      <rect width="32" height="32"/>
    </clipPath>
  </defs>
  <g id="_2bots" data-name="2bots" clip-path="url(#clip-_2bots)">
    <rect width="32" height="32" fill="rgba(255,255,255,0)"/>
    <g id="Group_144" data-name="Group 144" transform="translate(0 0)">
      <g id="Exclusion_8" data-name="Exclusion 8" transform="translate(6 9)" fill="#67757e">
        <path d="M 19.99979972839355 19.4989013671875 L 1.001700520515442 19.4989013671875 C 0.7260505557060242 19.4989013671875 0.501800537109375 19.27465057373047 0.501800537109375 18.99900054931641 L 0.501800537109375 0.9999006986618042 C 0.501800537109375 0.7242506742477417 0.7260505557060242 0.5000006556510925 1.001700520515442 0.5000006556510925 L 19.99979972839355 0.5000006556510925 C 20.27544975280762 0.5000006556510925 20.49970054626465 0.7242506742477417 20.49970054626465 0.9999006986618042 L 20.49970054626465 18.99900054931641 C 20.49970054626465 19.27465057373047 20.27544975280762 19.4989013671875 19.99979972839355 19.4989013671875 Z M 4.751500606536865 13.18360042572021 L 4.751500606536865 13.68360042572021 L 4.751500606536865 16.84080123901367 L 4.751500606536865 17.34080123901367 L 5.251500606536865 17.34080123901367 L 15.75090026855469 17.34080123901367 L 16.25090026855469 17.34080123901367 L 16.25090026855469 16.84080123901367 L 16.25090026855469 13.68360042572021 L 16.25090026855469 13.18360042572021 L 15.75090026855469 13.18360042572021 L 5.251500606536865 13.18360042572021 L 4.751500606536865 13.18360042572021 Z M 14.70060062408447 3.710200786590576 C 12.68798065185547 3.710200786590576 11.0506010055542 5.351220607757568 11.0506010055542 7.368300914764404 C 11.0506010055542 9.384890556335449 12.68798065185547 11.02550029754639 14.70060062408447 11.02550029754639 C 16.71322059631348 11.02550029754639 18.35060119628906 9.384890556335449 18.35060119628906 7.368300914764404 C 18.35060119628906 5.351220607757568 16.71322059631348 3.710200786590576 14.70060062408447 3.710200786590576 Z M 6.300900459289551 3.710200786590576 C 4.288780689239502 3.710200786590576 2.651800632476807 5.351220607757568 2.651800632476807 7.368300914764404 C 2.651800632476807 9.384890556335449 4.288780689239502 11.02550029754639 6.300900459289551 11.02550029754639 C 8.313520431518555 11.02550029754639 9.950900077819824 9.384890556335449 9.950900077819824 7.368300914764404 C 9.950900077819824 5.351220607757568 8.313520431518555 3.710200786590576 6.300900459289551 3.710200786590576 Z" stroke="none"/>
        <path d="M 19.99979972839355 18.9989013671875 L 19.99970054626465 18.99900054931641 L 19.99979972839355 1.000000715255737 L 1.001800537109375 0.9999006986618042 L 1.001700520515442 18.9989013671875 L 19.99979972839355 18.9989013671875 M 4.251500606536865 12.68360042572021 L 5.251500606536865 12.68360042572021 L 15.75090026855469 12.68360042572021 L 16.75090026855469 12.68360042572021 L 16.75090026855469 13.68360042572021 L 16.75090026855469 16.84080123901367 L 16.75090026855469 17.84080123901367 L 15.75090026855469 17.84080123901367 L 5.251500606536865 17.84080123901367 L 4.251500606536865 17.84080123901367 L 4.251500606536865 16.84080123901367 L 4.251500606536865 13.68360042572021 L 4.251500606536865 12.68360042572021 M 14.70060062408447 3.210200786590576 C 16.98892021179199 3.210200786590576 18.85060119628906 5.075520515441895 18.85060119628906 7.368300914764404 C 18.85060119628906 9.660591125488281 16.98892021179199 11.52550029754639 14.70060062408447 11.52550029754639 C 12.41228008270264 11.52550029754639 10.5506010055542 9.660591125488281 10.5506010055542 7.368300914764404 C 10.5506010055542 5.075520515441895 12.41228008270264 3.210200786590576 14.70060062408447 3.210200786590576 M 6.300900459289551 3.210200786590576 C 8.589221000671387 3.210200786590576 10.45090007781982 5.075520515441895 10.45090007781982 7.368300914764404 C 10.45090007781982 9.660591125488281 8.589221000671387 11.52550029754639 6.300900459289551 11.52550029754639 C 4.013080596923828 11.52550029754639 2.151800632476807 9.660591125488281 2.151800632476807 7.368300914764404 C 2.151800632476807 5.075520515441895 4.013080596923828 3.210200786590576 6.300900459289551 3.210200786590576 M 19.99979972839355 19.9989013671875 L 1.001700520515442 19.9989013671875 C 0.4503505527973175 19.9989013671875 0.001800541649572551 19.55035018920898 0.001800541649572551 18.99900054931641 L 0.001800541649572551 0.9999006986618042 C 0.001800541649572551 0.448550671339035 0.4503505527973175 6.83593725625542e-07 1.001700520515442 6.83593725625542e-07 L 19.99979972839355 6.83593725625542e-07 C 20.55115127563477 6.83593725625542e-07 20.99970054626465 0.448550671339035 20.99970054626465 0.9999006986618042 L 20.99970054626465 18.99900054931641 C 20.99970054626465 19.55035018920898 20.55115127563477 19.9989013671875 19.99979972839355 19.9989013671875 Z M 5.251500606536865 13.68360042572021 L 5.251500606536865 16.84080123901367 L 15.75090026855469 16.84080123901367 L 15.75090026855469 13.68360042572021 L 5.251500606536865 13.68360042572021 Z M 14.70060062408447 4.210200786590576 C 12.96368026733398 4.210200786590576 11.5506010055542 5.626920700073242 11.5506010055542 7.368300914764404 C 11.5506010055542 9.109190940856934 12.96368026733398 10.52550029754639 14.70060062408447 10.52550029754639 C 16.43752098083496 10.52550029754639 17.85060119628906 9.109190940856934 17.85060119628906 7.368300914764404 C 17.85060119628906 5.626920700073242 16.43752098083496 4.210200786590576 14.70060062408447 4.210200786590576 Z M 6.300900459289551 4.210200786590576 C 4.564480304718018 4.210200786590576 3.151800632476807 5.626920700073242 3.151800632476807 7.368300914764404 C 3.151800632476807 9.109190940856934 4.564480304718018 10.52550029754639 6.300900459289551 10.52550029754639 C 8.037820816040039 10.52550029754639 9.450900077819824 9.109190940856934 9.450900077819824 7.368300914764404 C 9.450900077819824 5.626920700073242 8.037820816040039 4.210200786590576 6.300900459289551 4.210200786590576 Z" stroke="none" fill="#67757e"/>
      </g>
      <g id="Rectangle_1508" data-name="Rectangle 1508" transform="translate(4 14)" fill="#67757e" stroke="#67757e" stroke-width="1">
        <path d="M1,0H3A0,0,0,0,1,3,0V9A0,0,0,0,1,3,9H1A1,1,0,0,1,0,8V1A1,1,0,0,1,1,0Z" stroke="none"/>
        <rect x="0.5" y="0.5" width="2" height="8" rx="0.5" fill="none"/>
      </g>
      <g id="Rectangle_1509" data-name="Rectangle 1509" transform="translate(26 14)" fill="#67757e" stroke="#67757e" stroke-width="1">
        <path d="M0,0H2A1,1,0,0,1,3,1V8A1,1,0,0,1,2,9H0A0,0,0,0,1,0,9V0A0,0,0,0,1,0,0Z" stroke="none"/>
        <rect x="0.5" y="0.5" width="2" height="8" rx="0.5" fill="none"/>
      </g>
      <line id="Line_70" data-name="Line 70" x2="9.32" transform="translate(16.426 4) rotate(90)" fill="none" stroke="#67757e" stroke-width="2"/>
    </g>
  </g>
</svg>
