<svg xmlns="http://www.w3.org/2000/svg" xmlns:xlink="http://www.w3.org/1999/xlink" width="85" height="85" viewBox="0 0 85 85">
  <defs>
    <linearGradient id="linear-gradient" x1="0.5" x2="0.5" y2="1" gradientUnits="objectBoundingBox">
      <stop offset="0" stop-color="#00a79d"/>
      <stop offset="1" stop-color="#03075f"/>
    </linearGradient>
    <filter id="Ellipse_23" x="-16" y="-13" width="116.995" height="116.994" filterUnits="userSpaceOnUse">
      <feOffset dy="3" input="SourceAlpha"/>
      <feGaussianBlur stdDeviation="3" result="blur"/>
      <feFlood flood-color="#757575" flood-opacity="0.78"/>
      <feComposite operator="in" in2="blur"/>
      <feComposite in="SourceGraphic"/>
    </filter>
    <clipPath id="clip-Chat">
      <rect width="85" height="85"/>
    </clipPath>
  </defs>
  <g id="Chat" clip-path="url(#clip-Chat)">
    <rect width="85" height="85" fill="rgba(255,255,255,0)"/>
    <g id="Group_116" data-name="Group 116" transform="translate(5 5)">
      <g transform="matrix(1, 0, 0, 1, -5, -5)" filter="url(#Ellipse_23)">
        <circle id="Ellipse_23-2" data-name="Ellipse 23" cx="35" cy="35" r="35" transform="translate(-7 42.5) rotate(-45)" fill="url(#linear-gradient)"/>
      </g>
      <path id="Exclusion_5" data-name="Exclusion 5" d="M7.138,28.552V21.415H2.38A2.382,2.382,0,0,1,0,19.035V2.38A2.382,2.382,0,0,1,2.38,0H26.173a2.382,2.382,0,0,1,2.38,2.38V19.035a2.382,2.382,0,0,1-2.38,2.38h-11.9L7.14,28.551ZM3,13.553a1,1,0,1,0,0,2H14a1,1,0,0,0,0-2Zm0-4a1,1,0,0,0,0,2H25a1,1,0,0,0,0-2Zm0-4a1,1,0,1,0,0,2H25a1,1,0,0,0,0-2Z" transform="translate(23 23)" fill="#fff"/>
    </g>
  </g>
</svg>
