<svg xmlns="http://www.w3.org/2000/svg" xmlns:xlink="http://www.w3.org/1999/xlink" width="60" height="60" viewBox="0 0 60 60">
  <defs>
    <clipPath id="clip-Chat_Configuration_Deselect">
      <rect width="60" height="60"/>
    </clipPath>
  </defs>
  <g id="Chat_Configuration_Deselect" data-name="Chat Configuration Deselect" clip-path="url(#clip-Chat_Configuration_Deselect)">
    <rect width="60" height="60" fill="rgba(255,255,255,0)"/>
    <g id="Group_165" data-name="Group 165">
      <g id="Ellipse_31" data-name="Ellipse 31" transform="translate(2 2)" fill="none" stroke="#a8b0bb" stroke-width="3">
        <circle cx="28.5" cy="28.5" r="28.5" stroke="none"/>
        <circle cx="28.5" cy="28.5" r="27" fill="none"/>
      </g>
      <g id="Subtraction_2" data-name="Subtraction 2" transform="translate(4191.953 13262.816)" fill="#a8b0bb">
        <path d="M -4171.498046875 -13220.546875 C -4172.43212890625 -13220.546875 -4173.2939453125 -13220.9658203125 -4173.86279296875 -13221.697265625 C -4174.88037109375 -13223.001953125 -4174.64794921875 -13224.8916015625 -4173.3447265625 -13225.91015625 L -4166.875 -13230.9638671875 L -4166.5771484375 -13231.1962890625 L -4166.7197265625 -13231.5458984375 C -4167.20703125 -13232.7421875 -4167.4541015625 -13234.0107421875 -4167.4541015625 -13235.31640625 C -4167.4541015625 -13240.830078125 -4162.96875 -13245.3154296875 -4157.455078125 -13245.3154296875 C -4155.75537109375 -13245.3154296875 -4154.10302734375 -13244.8896484375 -4152.6337890625 -13244.0791015625 L -4156.9619140625 -13240.697265625 C -4158.69873046875 -13239.3388671875 -4159.0087890625 -13236.8193359375 -4157.65283203125 -13235.08203125 C -4156.8896484375 -13234.1064453125 -4155.74072265625 -13233.546875 -4154.49951171875 -13233.546875 C -4153.61279296875 -13233.546875 -4152.73876953125 -13233.84765625 -4152.0380859375 -13234.3935546875 L -4147.75244140625 -13237.7431640625 C -4147.5556640625 -13236.953125 -4147.4560546875 -13236.1396484375 -4147.4560546875 -13235.31640625 C -4147.4560546875 -13232.646484375 -4148.49609375 -13230.134765625 -4150.3837890625 -13228.24609375 C -4152.27197265625 -13226.3583984375 -4154.783203125 -13225.318359375 -4157.455078125 -13225.318359375 C -4159.1455078125 -13225.318359375 -4160.81396484375 -13225.7470703125 -4162.279296875 -13226.55859375 L -4162.56884765625 -13226.71875 L -4162.82958984375 -13226.5146484375 L -4169.65185546875 -13221.181640625 C -4170.1826171875 -13220.7666015625 -4170.8212890625 -13220.546875 -4171.498046875 -13220.546875 Z" stroke="none"/>
        <path d="M -4171.498046875 -13221.046875 C -4170.93408203125 -13221.046875 -4170.40234375 -13221.2294921875 -4169.95947265625 -13221.576171875 L -4163.13720703125 -13226.9091796875 L -4162.6162109375 -13227.31640625 L -4162.037109375 -13226.99609375 C -4160.6455078125 -13226.2255859375 -4159.06103515625 -13225.818359375 -4157.455078125 -13225.818359375 C -4154.91650390625 -13225.818359375 -4152.53076171875 -13226.8056640625 -4150.73779296875 -13228.599609375 C -4148.94384765625 -13230.39453125 -4147.9560546875 -13232.779296875 -4147.9560546875 -13235.31640625 C -4147.9560546875 -13235.833984375 -4147.99755859375 -13236.34765625 -4148.07958984375 -13236.8525390625 L -4151.73046875 -13233.9990234375 C -4152.5185546875 -13233.384765625 -4153.501953125 -13233.046875 -4154.49951171875 -13233.046875 C -4155.8955078125 -13233.046875 -4157.1884765625 -13233.67578125 -4158.04736328125 -13234.7744140625 C -4159.57275390625 -13236.7294921875 -4159.22412109375 -13239.5634765625 -4157.26953125 -13241.091796875 L -4153.5654296875 -13243.986328125 C -4154.779296875 -13244.53125 -4156.1015625 -13244.8154296875 -4157.455078125 -13244.8154296875 C -4162.69287109375 -13244.8154296875 -4166.9541015625 -13240.5537109375 -4166.9541015625 -13235.31640625 C -4166.9541015625 -13234.0751953125 -4166.71923828125 -13232.8701171875 -4166.25634765625 -13231.734375 L -4165.97119140625 -13231.03515625 L -4166.56689453125 -13230.5693359375 L -4173.03662109375 -13225.515625 C -4174.12255859375 -13224.6669921875 -4174.31689453125 -13223.0927734375 -4173.4677734375 -13222.0048828125 C -4172.99462890625 -13221.3955078125 -4172.27685546875 -13221.046875 -4171.498046875 -13221.046875 M -4171.498046875 -13220.046875 C -4172.587890625 -13220.046875 -4173.59375 -13220.537109375 -4174.25732421875 -13221.390625 C -4175.4443359375 -13222.912109375 -4175.17333984375 -13225.115234375 -4173.65234375 -13226.3037109375 L -4167.1826171875 -13231.357421875 C -4167.69482421875 -13232.6142578125 -4167.9541015625 -13233.9462890625 -4167.9541015625 -13235.31640625 C -4167.9541015625 -13241.10546875 -4163.244140625 -13245.8154296875 -4157.455078125 -13245.8154296875 C -4155.419921875 -13245.8154296875 -4153.4482421875 -13245.234375 -4151.75244140625 -13244.1337890625 L -4156.65380859375 -13240.3037109375 C -4158.17333984375 -13239.115234375 -4158.4453125 -13236.91015625 -4157.2587890625 -13235.3896484375 C -4156.59130859375 -13234.5361328125 -4155.58544921875 -13234.046875 -4154.49951171875 -13234.046875 C -4153.72314453125 -13234.046875 -4152.9580078125 -13234.310546875 -4152.34521484375 -13234.7880859375 L -4147.47705078125 -13238.5927734375 C -4147.130859375 -13237.537109375 -4146.9560546875 -13236.4345703125 -4146.9560546875 -13235.31640625 C -4146.9560546875 -13232.51171875 -4148.0478515625 -13229.8759765625 -4150.0302734375 -13227.892578125 C -4152.0126953125 -13225.91015625 -4154.6494140625 -13224.818359375 -4157.455078125 -13224.818359375 C -4159.2294921875 -13224.818359375 -4160.9814453125 -13225.2685546875 -4162.521484375 -13226.12109375 L -4169.34375 -13220.7880859375 C -4169.962890625 -13220.3037109375 -4170.7080078125 -13220.046875 -4171.498046875 -13220.046875 Z" stroke="none" fill="#a8b0bb"/>
      </g>
    </g>
  </g>
</svg>
