<svg xmlns="http://www.w3.org/2000/svg" xmlns:xlink="http://www.w3.org/1999/xlink" width="60" height="60" viewBox="0 0 60 60">
  <defs>
    <clipPath id="clip-Company_details_Select_TG">
      <rect width="60" height="60"/>
    </clipPath>
  </defs>
  <g id="Company_details_Select_TG" data-name="Company details Select TG" clip-path="url(#clip-Company_details_Select_TG)">
    <rect width="60" height="60" fill="rgba(255,255,255,0)"/>
    <g id="Ellipse_30" data-name="Ellipse 30" transform="translate(2 2)" fill="none" stroke="#306869" stroke-width="3">
      <circle cx="28.5" cy="28.5" r="28.5" stroke="none"/>
      <circle cx="28.5" cy="28.5" r="27" fill="none"/>
    </g>
    <g id="Group_123" data-name="Group 123" transform="translate(-6133 -10173)">
      <g id="Exclusion_3" data-name="Exclusion 3" transform="translate(6147 10191)" fill="#306869">
        <path d="M 9.131222724914551 26.49909973144531 L 2.499800443649292 26.49909973144531 L 2.499800443649292 2.999699831008911 L 2.499800443649292 2.499699831008911 L 1.999800562858582 2.499699831008911 L 1.500300526618958 2.499699831008911 C 0.9487305283546448 2.499699831008911 0.500000536441803 2.051369905471802 0.500000536441803 1.50029981136322 C 0.500000536441803 0.9487298727035522 0.9487305283546448 0.4999998509883881 1.500300526618958 0.4999998509883881 L 24.49979972839355 0.4999998509883881 C 25.05137062072754 0.4999998509883881 25.50010108947754 0.9487298727035522 25.50010108947754 1.50029981136322 C 25.50010108947754 1.922919869422913 25.2321605682373 2.301709890365601 24.83337020874023 2.44284987449646 L 24.50020027160645 2.56076979637146 L 24.50020027160645 2.914199829101563 L 24.50020027160645 6.71002721786499 C 24.43946647644043 6.708743572235107 24.37870979309082 6.708099842071533 24.31800079345703 6.708099842071533 L 17.31780052185059 6.708099842071533 C 12.6313304901123 6.708099842071533 8.818600654602051 10.52122974395752 8.818600654602051 15.2081995010376 L 8.818600654602051 24.20730018615723 C 8.818600654602051 24.98842620849609 8.923550605773926 25.75650787353516 9.131222724914551 26.49909973144531 Z M 3.499600648880005 17.49909973144531 L 3.499600648880005 17.99909973144531 L 3.499600648880005 20.99970054626465 L 3.499600648880005 21.49970054626465 L 3.999600648880005 21.49970054626465 L 6.999300479888916 21.49970054626465 L 7.499300479888916 21.49970054626465 L 7.499300479888916 20.99970054626465 L 7.499300479888916 17.99909973144531 L 7.499300479888916 17.49909973144531 L 6.999300479888916 17.49909973144531 L 3.999600648880005 17.49909973144531 L 3.499600648880005 17.49909973144531 Z M 3.499600648880005 12.49959945678711 L 3.499600648880005 12.99959945678711 L 3.499600648880005 15.99930000305176 L 3.499600648880005 16.49930000305176 L 3.999600648880005 16.49930000305176 L 6.999300479888916 16.49930000305176 L 7.499300479888916 16.49930000305176 L 7.499300479888916 15.99930000305176 L 7.499300479888916 12.99959945678711 L 7.499300479888916 12.49959945678711 L 6.999300479888916 12.49959945678711 L 3.999600648880005 12.49959945678711 L 3.499600648880005 12.49959945678711 Z M 3.499600648880005 7.499199867248535 L 3.499600648880005 7.999199867248535 L 3.499600648880005 10.99979972839355 L 3.499600648880005 11.49979972839355 L 3.999600648880005 11.49979972839355 L 6.999300479888916 11.49979972839355 L 7.499300479888916 11.49979972839355 L 7.499300479888916 10.99979972839355 L 7.499300479888916 7.999199867248535 L 7.499300479888916 7.499199867248535 L 6.999300479888916 7.499199867248535 L 3.999600648880005 7.499199867248535 L 3.499600648880005 7.499199867248535 Z M 18.49990081787109 2.499699831008911 L 18.49990081787109 2.999699831008911 L 18.49990081787109 5.999399662017822 L 18.49990081787109 6.499399662017822 L 18.99990081787109 6.499399662017822 L 21.99960136413574 6.499399662017822 L 22.49960136413574 6.499399662017822 L 22.49960136413574 5.999399662017822 L 22.49960136413574 2.999699831008911 L 22.49960136413574 2.499699831008911 L 21.99960136413574 2.499699831008911 L 18.99990081787109 2.499699831008911 L 18.49990081787109 2.499699831008911 Z M 13.4995002746582 2.499699831008911 L 13.4995002746582 2.999699831008911 L 13.4995002746582 5.999399662017822 L 13.4995002746582 6.499399662017822 L 13.9995002746582 6.499399662017822 L 17.00010108947754 6.499399662017822 L 17.50010108947754 6.499399662017822 L 17.50010108947754 5.999399662017822 L 17.50010108947754 2.999699831008911 L 17.50010108947754 2.499699831008911 L 17.00010108947754 2.499699831008911 L 13.9995002746582 2.499699831008911 L 13.4995002746582 2.499699831008911 Z M 8.500000953674316 2.499699831008911 L 8.500000953674316 2.999699831008911 L 8.500000953674316 5.999399662017822 L 8.500000953674316 6.499399662017822 L 9.000000953674316 6.499399662017822 L 11.99970054626465 6.499399662017822 L 12.49970054626465 6.499399662017822 L 12.49970054626465 5.999399662017822 L 12.49970054626465 2.999699831008911 L 12.49970054626465 2.499699831008911 L 11.99970054626465 2.499699831008911 L 9.000000953674316 2.499699831008911 L 8.500000953674316 2.499699831008911 Z M 3.499600648880005 2.499699831008911 L 3.499600648880005 2.999699831008911 L 3.499600648880005 5.999399662017822 L 3.499600648880005 6.499399662017822 L 3.999600648880005 6.499399662017822 L 6.999300479888916 6.499399662017822 L 7.499300479888916 6.499399662017822 L 7.499300479888916 5.999399662017822 L 7.499300479888916 2.999699831008911 L 7.499300479888916 2.499699831008911 L 6.999300479888916 2.499699831008911 L 3.999600648880005 2.499699831008911 L 3.499600648880005 2.499699831008911 Z" stroke="none"/>
        <path d="M 8.496970176696777 25.99909973144531 C 8.378358840942383 25.41262435913086 8.318600654602051 24.81366729736328 8.318600654602051 24.20730018615723 L 8.318600654602051 15.2081995010376 C 8.318600654602051 11.55949878692627 10.50096607208252 8.410900115966797 13.62871932983398 6.999399662017822 L 12.99970054626465 6.999399662017822 L 11.99970054626465 6.999399662017822 L 9.000000953674316 6.999399662017822 L 8.000000953674316 6.999399662017822 L 8.000000953674316 5.999399662017822 L 8.000000953674316 2.999699831008911 L 8.000000953674316 1.999699831008911 L 9.000000953674316 1.999699831008911 L 11.99970054626465 1.999699831008911 L 12.9995002746582 1.999699831008911 L 13.9995002746582 1.999699831008911 L 17.00010108947754 1.999699831008911 L 17.99990081787109 1.999699831008911 L 18.99990081787109 1.999699831008911 L 21.99960136413574 1.999699831008911 L 22.99960136413574 1.999699831008911 L 22.99960136413574 2.999699831008911 L 22.99960136413574 5.999399662017822 L 22.99960136413574 6.208099842071533 L 24.00020027160645 6.208099842071533 L 24.00020027160645 2.914199829101563 L 24.00020027160645 2.20734977722168 L 24.66654014587402 1.97150981426239 C 24.86605072021484 1.900889873504639 25.00010108947754 1.711529850959778 25.00010108947754 1.50029981136322 C 25.00010108947754 1.224429845809937 24.77567100524902 0.9999998807907104 24.49979972839355 0.9999998807907104 L 1.500300526618958 0.9999998807907104 C 1.224430561065674 0.9999998807907104 1.000000596046448 1.224429845809937 1.000000596046448 1.50029981136322 C 1.000000596046448 1.775669813156128 1.224430561065674 1.999699831008911 1.500300526618958 1.999699831008911 L 1.999800562858582 1.999699831008911 L 2.999800443649292 1.999699831008911 L 3.999600648880005 1.999699831008911 L 6.999300479888916 1.999699831008911 L 7.999300479888916 1.999699831008911 L 7.999300479888916 2.999699831008911 L 7.999300479888916 5.999399662017822 L 7.999300479888916 6.999399662017822 L 7.999300479888916 7.999199867248535 L 7.999300479888916 10.99979972839355 L 7.999300479888916 11.99979972839355 L 7.999300479888916 12.99959945678711 L 7.999300479888916 15.99930000305176 L 7.999300479888916 16.99930000305176 L 7.999300479888916 17.99909973144531 L 7.999300479888916 20.99970054626465 L 7.999300479888916 21.99970054626465 L 6.999300479888916 21.99970054626465 L 3.999600648880005 21.99970054626465 L 2.999800443649292 21.99970054626465 L 2.999800443649292 25.99909973144531 L 8.496970176696777 25.99909973144531 M 9.819330215454102 26.99909973144531 L 9.818100929260254 26.99909973144531 L 1.999800562858582 26.99909973144531 L 1.999800562858582 2.999699831008911 L 1.500300526618958 2.999699831008911 C 0.6730305552482605 2.999699831008911 5.447387820822769e-07 2.327069759368896 5.447387820822769e-07 1.50029981136322 C 5.447387820822769e-07 0.6730298399925232 0.6730305552482605 -1.342773430224042e-07 1.500300526618958 -1.342773430224042e-07 L 24.49979972839355 -1.342773430224042e-07 C 25.32707023620605 -1.342773430224042e-07 26.00010108947754 0.6730298399925232 26.00010108947754 1.50029981136322 C 26.00010108947754 2.13431978225708 25.59827041625977 2.70251989364624 25.00020027160645 2.914199829101563 L 25.00020027160645 7.236899852752686 C 24.78005027770996 7.218120098114014 24.55090141296387 7.208099842071533 24.31800079345703 7.208099842071533 L 17.31780052185059 7.208099842071533 C 12.90703010559082 7.208099842071533 9.318600654602051 10.79693031311035 9.318600654602051 15.2081995010376 L 9.318600654602051 24.20730018615723 C 9.318600654602051 25.16729927062988 9.486900329589844 26.10614013671875 9.818830490112305 26.99774932861328 L 9.819330215454102 26.99909973144531 Z M 3.999600648880005 17.99909973144531 L 3.999600648880005 20.99970054626465 L 6.999300479888916 20.99970054626465 L 6.999300479888916 17.99909973144531 L 3.999600648880005 17.99909973144531 Z M 3.999600648880005 12.99959945678711 L 3.999600648880005 15.99930000305176 L 6.999300479888916 15.99930000305176 L 6.999300479888916 12.99959945678711 L 3.999600648880005 12.99959945678711 Z M 3.999600648880005 7.999199867248535 L 3.999600648880005 10.99979972839355 L 6.999300479888916 10.99979972839355 L 6.999300479888916 7.999199867248535 L 3.999600648880005 7.999199867248535 Z M 18.99990081787109 2.999699831008911 L 18.99990081787109 5.999399662017822 L 21.99960136413574 5.999399662017822 L 21.99960136413574 2.999699831008911 L 18.99990081787109 2.999699831008911 Z M 13.9995002746582 2.999699831008911 L 13.9995002746582 5.999399662017822 L 17.00010108947754 5.999399662017822 L 17.00010108947754 2.999699831008911 L 13.9995002746582 2.999699831008911 Z M 9.000000953674316 2.999699831008911 L 9.000000953674316 5.999399662017822 L 11.99970054626465 5.999399662017822 L 11.99970054626465 2.999699831008911 L 9.000000953674316 2.999699831008911 Z M 3.999600648880005 2.999699831008911 L 3.999600648880005 5.999399662017822 L 6.999300479888916 5.999399662017822 L 6.999300479888916 2.999699831008911 L 3.999600648880005 2.999699831008911 Z" stroke="none" fill="#306869"/>
      </g>
      <g id="Exclusion_6" data-name="Exclusion 6" transform="translate(6161 10203)" fill="#306869">
        <path d="M 7.500100135803223 15.50113773345947 L 0.5 15.50026226043701 L 0.5 0.4999998509883881 L 2.49970006942749 0.4999998509883881 L 2.49970006942749 0.9998998641967773 L 2.49970006942749 3.999599933624268 L 2.49970006942749 4.499599933624268 L 2.99970006942749 4.499599933624268 L 6.00029993057251 4.499599933624268 L 6.50029993057251 4.499599933624268 L 6.50029993057251 3.999599933624268 L 6.50029993057251 0.9998998641967773 L 6.50029993057251 0.4999998509883881 L 7.500100135803223 0.4999998509883881 L 7.500100135803223 0.9998998641967773 L 7.500100135803223 3.999599933624268 L 7.500100135803223 4.499599933624268 L 8.000100135803223 4.499599933624268 L 10.99979972839355 4.499599933624268 L 11.49979972839355 4.499599933624268 L 11.49979972839355 3.999599933624268 L 11.49979972839355 0.9998998641967773 L 11.49979972839355 0.4999998509883881 L 12.49960041046143 0.4999998509883881 L 12.49960041046143 0.9998998641967773 L 12.49960041046143 3.999599933624268 L 12.49960041046143 4.499599933624268 L 12.99960041046143 4.499599933624268 L 16.00020027160645 4.499599933624268 L 16.50020027160645 4.499599933624268 L 16.50020027160645 3.999599933624268 L 16.50020027160645 0.9998998641967773 L 16.50020027160645 0.4999998509883881 L 17.5 0.4999998509883881 L 17.5 15.49936389923096 L 11.49979972839355 15.50013542175293 L 11.49979972839355 10.99979972839355 L 11.49979972839355 10.49979972839355 L 10.99979972839355 10.49979972839355 L 8.000100135803223 10.49979972839355 L 7.500100135803223 10.49979972839355 L 7.500100135803223 10.99979972839355 L 7.500100135803223 15.50113773345947 Z M 12.49960041046143 10.49979972839355 L 12.49960041046143 10.99979972839355 L 12.49960041046143 14.00039958953857 L 12.49960041046143 14.50039958953857 L 12.99960041046143 14.50039958953857 L 16.00020027160645 14.50039958953857 L 16.50020027160645 14.50039958953857 L 16.50020027160645 14.00039958953857 L 16.50020027160645 10.99979972839355 L 16.50020027160645 10.49979972839355 L 16.00020027160645 10.49979972839355 L 12.99960041046143 10.49979972839355 L 12.49960041046143 10.49979972839355 Z M 2.49970006942749 10.49979972839355 L 2.49970006942749 10.99979972839355 L 2.49970006942749 14.00039958953857 L 2.49970006942749 14.50039958953857 L 2.99970006942749 14.50039958953857 L 6.00029993057251 14.50039958953857 L 6.50029993057251 14.50039958953857 L 6.50029993057251 14.00039958953857 L 6.50029993057251 10.99979972839355 L 6.50029993057251 10.49979972839355 L 6.00029993057251 10.49979972839355 L 2.99970006942749 10.49979972839355 L 2.49970006942749 10.49979972839355 Z M 12.49960041046143 5.50029993057251 L 12.49960041046143 6.00029993057251 L 12.49960041046143 9 L 12.49960041046143 9.5 L 12.99960041046143 9.5 L 16.00020027160645 9.5 L 16.50020027160645 9.5 L 16.50020027160645 9 L 16.50020027160645 6.00029993057251 L 16.50020027160645 5.50029993057251 L 16.00020027160645 5.50029993057251 L 12.99960041046143 5.50029993057251 L 12.49960041046143 5.50029993057251 Z M 7.500100135803223 5.50029993057251 L 7.500100135803223 6.00029993057251 L 7.500100135803223 9 L 7.500100135803223 9.5 L 8.000100135803223 9.5 L 10.99979972839355 9.5 L 11.49979972839355 9.5 L 11.49979972839355 9 L 11.49979972839355 6.00029993057251 L 11.49979972839355 5.50029993057251 L 10.99979972839355 5.50029993057251 L 8.000100135803223 5.50029993057251 L 7.500100135803223 5.50029993057251 Z M 2.49970006942749 5.50029993057251 L 2.49970006942749 6.00029993057251 L 2.49970006942749 9 L 2.49970006942749 9.5 L 2.99970006942749 9.5 L 6.00029993057251 9.5 L 6.50029993057251 9.5 L 6.50029993057251 9 L 6.50029993057251 6.00029993057251 L 6.50029993057251 5.50029993057251 L 6.00029993057251 5.50029993057251 L 2.99970006942749 5.50029993057251 L 2.49970006942749 5.50029993057251 Z" stroke="none"/>
        <path d="M 7.000100135803223 15.00107479095459 L 7.000100135803223 15.00039958953857 L 6.00029993057251 15.00039958953857 L 2.99970006942749 15.00039958953857 L 1.999699950218201 15.00039958953857 L 1.999699950218201 14.00039958953857 L 1.999699950218201 10.99979972839355 L 1.999699950218201 9.999799728393555 L 1.999699950218201 9 L 1.999699950218201 6.00029993057251 L 1.999699950218201 5.00029993057251 L 2.99970006942749 5.00029993057251 L 6.00029993057251 5.00029993057251 L 7.000100135803223 5.00029993057251 L 8.000100135803223 5.00029993057251 L 10.99979972839355 5.00029993057251 L 11.99960041046143 5.00029993057251 L 12.99960041046143 5.00029993057251 L 16.00020027160645 5.00029993057251 L 17 5.00029993057251 L 17 4.999599933624268 L 16.00020027160645 4.999599933624268 L 12.99960041046143 4.999599933624268 L 11.99979972839355 4.999599933624268 L 10.99979972839355 4.999599933624268 L 8.000100135803223 4.999599933624268 L 7.00029993057251 4.999599933624268 L 6.00029993057251 4.999599933624268 L 2.99970006942749 4.999599933624268 L 1.999699950218201 4.999599933624268 L 1.999699950218201 3.999599933624268 L 1.999699950218201 0.9999998807907104 L 1 0.9999998807907104 L 1 15.00032520294189 L 7.000100135803223 15.00107479095459 M 8.000100135803223 16.00119972229004 L 7.999100208282471 16.00119972229004 L 0 16.00020027160645 L 0 -1.388549861758293e-07 L 18 -1.388549861758293e-07 L 18 15.99930000305176 L 10.99979972839355 16.00020027160645 L 10.99979972839355 10.99979972839355 L 8.000100135803223 10.99979972839355 L 8.000100135803223 16.00020027160645 L 8.000100135803223 16.00119972229004 Z M 12.99960041046143 10.99979972839355 L 12.99960041046143 14.00039958953857 L 16.00020027160645 14.00039958953857 L 16.00020027160645 10.99979972839355 L 12.99960041046143 10.99979972839355 Z M 2.99970006942749 10.99979972839355 L 2.99970006942749 14.00039958953857 L 6.00029993057251 14.00039958953857 L 6.00029993057251 10.99979972839355 L 2.99970006942749 10.99979972839355 Z M 12.99960041046143 6.00029993057251 L 12.99960041046143 9 L 16.00020027160645 9 L 16.00020027160645 6.00029993057251 L 12.99960041046143 6.00029993057251 Z M 8.000100135803223 6.00029993057251 L 8.000100135803223 9 L 10.99979972839355 9 L 10.99979972839355 6.00029993057251 L 8.000100135803223 6.00029993057251 Z M 2.99970006942749 6.00029993057251 L 2.99970006942749 9 L 6.00029993057251 9 L 6.00029993057251 6.00029993057251 L 2.99970006942749 6.00029993057251 Z M 12.99960041046143 0.9998998641967773 L 12.99960041046143 3.999599933624268 L 16.00020027160645 3.999599933624268 L 16.00020027160645 0.9998998641967773 L 12.99960041046143 0.9998998641967773 Z M 8.000100135803223 0.9998998641967773 L 8.000100135803223 3.999599933624268 L 10.99979972839355 3.999599933624268 L 10.99979972839355 0.9998998641967773 L 8.000100135803223 0.9998998641967773 Z M 2.99970006942749 0.9998998641967773 L 2.99970006942749 3.999599933624268 L 6.00029993057251 3.999599933624268 L 6.00029993057251 0.9998998641967773 L 2.99970006942749 0.9998998641967773 Z" stroke="none" fill="#306869"/>
      </g>
      <g id="Group_122" data-name="Group 122" transform="translate(0 -0.108)">
        <g id="Rectangle_1592" data-name="Rectangle 1592" transform="translate(6160 10201.108)" fill="#306869" stroke="#306869" stroke-width="2">
          <rect width="20" height="2" rx="1" stroke="none"/>
          <rect x="1" y="1" width="18" fill="none"/>
        </g>
      </g>
      <g id="Rectangle_1593" data-name="Rectangle 1593" transform="translate(6150 10186)" fill="#306869" stroke="#306869" stroke-width="1">
        <rect width="21" height="3" rx="1.5" stroke="none"/>
        <rect x="0.5" y="0.5" width="20" height="2" rx="1" fill="none"/>
      </g>
    </g>
  </g>
</svg>
