<svg xmlns="http://www.w3.org/2000/svg" xmlns:xlink="http://www.w3.org/1999/xlink" width="35" height="35" viewBox="0 0 35 35">
  <defs>
    <clipPath id="clip-Company">
      <rect width="35" height="35"/>
    </clipPath>
  </defs>
  <g id="Company" clip-path="url(#clip-Company)">
    <rect width="35" height="35" fill="rgba(255,255,255,0)"/>
    <g id="Group_115" data-name="Group 115" transform="translate(-5837 -10050)">
      <g id="Exclusion_3" data-name="Exclusion 3" transform="translate(5840 10057)" fill="#fff">
        <path d="M 7.952316761016846 22.4995002746582 L 2.1920006275177 22.4995002746582 L 2.1920006275177 2.554199934005737 L 2.1920006275177 2.054199934005737 L 1.6920006275177 2.054199934005737 L 1.278000712394714 2.054199934005737 C 0.849010705947876 2.054199934005737 0.5000006556510925 1.705189824104309 0.5000006556510925 1.276199817657471 C 0.5000006556510925 0.8472098708152771 0.849010705947876 0.4981998801231384 1.278000712394714 0.4981998801231384 L 20.72249984741211 0.4981998801231384 C 21.15099143981934 0.4981998801231384 21.49960136413574 0.8472098708152771 21.49960136413574 1.276199817657471 C 21.49960136413574 1.603729844093323 21.29258155822754 1.898209810256958 20.98445129394531 2.008979797363281 L 20.65360069274902 2.127919912338257 L 20.65360069274902 2.479499816894531 L 20.65360069274902 5.738961696624756 C 20.22300338745117 5.672464847564697 19.78542709350586 5.638899803161621 19.34640121459961 5.638899803161621 L 15.88410091400146 5.638899803161621 C 11.19713115692139 5.638899803161621 7.384000778198242 9.452030181884766 7.384000778198242 14.13899993896484 L 7.384000778198242 19.43639945983887 C 7.384000778198242 20.49936676025391 7.574866771697998 21.52646064758301 7.952316761016846 22.4995002746582 Z M 2.884900569915771 14.83240032196045 L 2.884900569915771 15.33240032196045 L 2.884900569915771 17.88839912414551 L 2.884900569915771 18.38839912414551 L 3.384900569915771 18.38839912414551 L 5.923800468444824 18.38839912414551 L 6.423800468444824 18.38839912414551 L 6.423800468444824 17.88839912414551 L 6.423800468444824 15.33240032196045 L 6.423800468444824 14.83240032196045 L 5.923800468444824 14.83240032196045 L 3.384900569915771 14.83240032196045 L 2.884900569915771 14.83240032196045 Z M 2.884900569915771 10.57359981536865 L 2.884900569915771 11.07359981536865 L 2.884900569915771 13.62870025634766 L 2.884900569915771 14.12870025634766 L 3.384900569915771 14.12870025634766 L 5.923800468444824 14.12870025634766 L 6.423800468444824 14.12870025634766 L 6.423800468444824 13.62870025634766 L 6.423800468444824 11.07359981536865 L 6.423800468444824 10.57359981536865 L 5.923800468444824 10.57359981536865 L 3.384900569915771 10.57359981536865 L 2.884900569915771 10.57359981536865 Z M 2.884900569915771 6.313899993896484 L 2.884900569915771 6.813899993896484 L 2.884900569915771 9.369899749755859 L 2.884900569915771 9.869899749755859 L 3.384900569915771 9.869899749755859 L 5.923800468444824 9.869899749755859 L 6.423800468444824 9.869899749755859 L 6.423800468444824 9.369899749755859 L 6.423800468444824 6.813899993896484 L 6.423800468444824 6.313899993896484 L 5.923800468444824 6.313899993896484 L 3.384900569915771 6.313899993896484 L 2.884900569915771 6.313899993896484 Z M 15.57760047912598 2.054199934005737 L 15.57760047912598 2.554199934005737 L 15.57760047912598 5.110199928283691 L 15.57760047912598 5.610199928283691 L 16.07760047912598 5.610199928283691 L 18.6156005859375 5.610199928283691 L 19.1156005859375 5.610199928283691 L 19.1156005859375 5.110199928283691 L 19.1156005859375 2.554199934005737 L 19.1156005859375 2.054199934005737 L 18.6156005859375 2.054199934005737 L 16.07760047912598 2.054199934005737 L 15.57760047912598 2.054199934005737 Z M 11.34670066833496 2.054199934005737 L 11.34670066833496 2.554199934005737 L 11.34670066833496 5.110199928283691 L 11.34670066833496 5.610199928283691 L 11.84670066833496 5.610199928283691 L 14.38470077514648 5.610199928283691 L 14.88470077514648 5.610199928283691 L 14.88470077514648 5.110199928283691 L 14.88470077514648 2.554199934005737 L 14.88470077514648 2.054199934005737 L 14.38470077514648 2.054199934005737 L 11.84670066833496 2.054199934005737 L 11.34670066833496 2.054199934005737 Z M 7.115800857543945 2.054199934005737 L 7.115800857543945 2.554199934005737 L 7.115800857543945 5.110199928283691 L 7.115800857543945 5.610199928283691 L 7.615800857543945 5.610199928283691 L 10.15380096435547 5.610199928283691 L 10.65380096435547 5.610199928283691 L 10.65380096435547 5.110199928283691 L 10.65380096435547 2.554199934005737 L 10.65380096435547 2.054199934005737 L 10.15380096435547 2.054199934005737 L 7.615800857543945 2.054199934005737 L 7.115800857543945 2.054199934005737 Z M 2.884900569915771 2.054199934005737 L 2.884900569915771 2.554199934005737 L 2.884900569915771 5.110199928283691 L 2.884900569915771 5.610199928283691 L 3.384900569915771 5.610199928283691 L 5.923800468444824 5.610199928283691 L 6.423800468444824 5.610199928283691 L 6.423800468444824 5.110199928283691 L 6.423800468444824 2.554199934005737 L 6.423800468444824 2.054199934005737 L 5.923800468444824 2.054199934005737 L 3.384900569915771 2.054199934005737 L 2.884900569915771 2.054199934005737 Z" stroke="none"/>
        <path d="M 7.253144264221191 21.9995002746582 C 7.007762432098389 21.17443466186523 6.884000778198242 20.3170223236084 6.884000778198242 19.43639945983887 L 6.884000778198242 18.88839912414551 L 5.923800468444824 18.88839912414551 L 3.384900569915771 18.88839912414551 L 2.6920006275177 18.88839912414551 L 2.6920006275177 21.9995002746582 L 7.253144264221191 21.9995002746582 M 6.923800468444824 13.28903675079346 C 7.219064235687256 10.15061473846436 9.13283634185791 7.475868225097656 11.81924343109131 6.110199928283691 L 11.15380096435547 6.110199928283691 L 10.15380096435547 6.110199928283691 L 7.615800857543945 6.110199928283691 L 6.923800468444824 6.110199928283691 L 6.923800468444824 6.813899993896484 L 6.923800468444824 9.369899749755859 L 6.923800468444824 10.36989974975586 L 6.923800468444824 11.07359981536865 L 6.923800468444824 13.28903675079346 M 20.15360069274902 5.174756526947021 L 20.15360069274902 2.479499816894531 L 20.15360069274902 1.776339888572693 L 20.81529998779297 1.538459897041321 C 20.9238109588623 1.499449849128723 20.99960136413574 1.391609907150269 20.99960136413574 1.276199817657471 C 20.99960136413574 1.122909903526306 20.87528991699219 0.9981998801231384 20.72249984741211 0.9981998801231384 L 1.278000712394714 0.9981998801231384 C 1.12471067905426 0.9981998801231384 1.000000715255737 1.122909903526306 1.000000715255737 1.276199817657471 C 1.000000715255737 1.429489850997925 1.12471067905426 1.554199814796448 1.278000712394714 1.554199814796448 L 1.6920006275177 1.554199814796448 L 2.6920006275177 1.554199814796448 L 3.384900569915771 1.554199814796448 L 5.923800468444824 1.554199814796448 L 6.615800857543945 1.554199814796448 L 7.615800857543945 1.554199814796448 L 10.15380096435547 1.554199814796448 L 10.84670066833496 1.554199814796448 L 11.84670066833496 1.554199814796448 L 14.38470077514648 1.554199814796448 L 15.07760047912598 1.554199814796448 L 16.07760047912598 1.554199814796448 L 18.6156005859375 1.554199814796448 L 19.6156005859375 1.554199814796448 L 19.6156005859375 2.554199934005737 L 19.6156005859375 5.110199928283691 L 19.6156005859375 5.142879009246826 C 19.79545021057129 5.148194789886475 19.97486114501953 5.158832550048828 20.15360069274902 5.174756526947021 M 8.719650268554688 22.9995002746582 L 8.71803092956543 22.9995002746582 L 1.6920006275177 22.9995002746582 L 1.6920006275177 2.554199934005737 L 1.278000712394714 2.554199934005737 C 0.5733106732368469 2.554199934005737 6.820678777330613e-07 1.980889916419983 6.820678777330613e-07 1.276199817657471 C 6.820678777330613e-07 0.5715098977088928 0.5733106732368469 -0.001800131169147789 1.278000712394714 -0.001800131169147789 L 20.72249984741211 -0.001800131169147789 C 21.42670059204102 -0.001800131169147789 21.99960136413574 0.5715098977088928 21.99960136413574 1.276199817657471 C 21.99960136413574 1.814019918441772 21.65962028503418 2.297589778900146 21.15360069274902 2.479499816894531 L 21.15360069274902 6.344099998474121 C 20.56707000732422 6.208270072937012 19.95944976806641 6.138899803161621 19.34640121459961 6.138899803161621 L 15.88410091400146 6.138899803161621 C 11.4728307723999 6.138899803161621 7.884000778198242 9.727729797363281 7.884000778198242 14.13899993896484 L 7.884000778198242 19.43639945983887 C 7.884000778198242 20.6878604888916 8.164910316467285 21.88616943359375 8.718930244445801 22.99805068969727 L 8.719650268554688 22.9995002746582 Z M 3.384900569915771 15.33240032196045 L 3.384900569915771 17.88839912414551 L 5.923800468444824 17.88839912414551 L 5.923800468444824 15.33240032196045 L 3.384900569915771 15.33240032196045 Z M 3.384900569915771 11.07359981536865 L 3.384900569915771 13.62870025634766 L 5.923800468444824 13.62870025634766 L 5.923800468444824 11.07359981536865 L 3.384900569915771 11.07359981536865 Z M 3.384900569915771 6.813899993896484 L 3.384900569915771 9.369899749755859 L 5.923800468444824 9.369899749755859 L 5.923800468444824 6.813899993896484 L 3.384900569915771 6.813899993896484 Z M 16.07760047912598 2.554199934005737 L 16.07760047912598 5.110199928283691 L 18.6156005859375 5.110199928283691 L 18.6156005859375 2.554199934005737 L 16.07760047912598 2.554199934005737 Z M 11.84670066833496 2.554199934005737 L 11.84670066833496 5.110199928283691 L 14.38470077514648 5.110199928283691 L 14.38470077514648 2.554199934005737 L 11.84670066833496 2.554199934005737 Z M 7.615800857543945 2.554199934005737 L 7.615800857543945 5.110199928283691 L 10.15380096435547 5.110199928283691 L 10.15380096435547 2.554199934005737 L 7.615800857543945 2.554199934005737 Z M 3.384900569915771 2.554199934005737 L 3.384900569915771 5.110199928283691 L 5.923800468444824 5.110199928283691 L 5.923800468444824 2.554199934005737 L 3.384900569915771 2.554199934005737 Z" stroke="none" fill="#fff"/>
      </g>
      <g id="Exclusion_4" data-name="Exclusion 4" transform="translate(5852 10068)" fill="#fff">
        <path d="M 15.5 13.5 L 0.5 13.5 L 0.5 0.5 L 2.166399955749512 0.5 L 2.166399955749512 0.8748999834060669 L 2.166399955749512 3.49960994720459 L 2.166399955749512 3.99960994720459 L 2.666399955749512 3.99960994720459 L 5.333600044250488 3.99960994720459 L 5.833600044250488 3.99960994720459 L 5.833600044250488 3.49960994720459 L 5.833600044250488 0.8748999834060669 L 5.833600044250488 0.5 L 6.611199855804443 0.5 L 6.611199855804443 0.8748999834060669 L 6.611199855804443 3.49960994720459 L 6.611199855804443 3.99960994720459 L 7.111199855804443 3.99960994720459 L 9.777600288391113 3.99960994720459 L 10.27760028839111 3.99960994720459 L 10.27760028839111 3.49960994720459 L 10.27760028839111 0.8748999834060669 L 10.27760028839111 0.5 L 11.05519962310791 0.5 L 11.05519962310791 0.8748999834060669 L 11.05519962310791 3.49960994720459 L 11.05519962310791 3.99960994720459 L 11.55519962310791 3.99960994720459 L 14.22239971160889 3.99960994720459 L 14.72239971160889 3.99960994720459 L 14.72239971160889 3.49960994720459 L 14.72239971160889 0.8748999834060669 L 14.72239971160889 0.5 L 15.5 0.5 L 15.5 13.5 Z M 11.05519962310791 9.124699592590332 L 11.05519962310791 9.624699592590332 L 11.05519962310791 12.25020027160645 L 11.05519962310791 12.75020027160645 L 11.55519962310791 12.75020027160645 L 14.22239971160889 12.75020027160645 L 14.72239971160889 12.75020027160645 L 14.72239971160889 12.25020027160645 L 14.72239971160889 9.624699592590332 L 14.72239971160889 9.124699592590332 L 14.22239971160889 9.124699592590332 L 11.55519962310791 9.124699592590332 L 11.05519962310791 9.124699592590332 Z M 2.166399955749512 9.124699592590332 L 2.166399955749512 9.624699592590332 L 2.166399955749512 12.25020027160645 L 2.166399955749512 12.75020027160645 L 2.666399955749512 12.75020027160645 L 5.333600044250488 12.75020027160645 L 5.833600044250488 12.75020027160645 L 5.833600044250488 12.25020027160645 L 5.833600044250488 9.624699592590332 L 5.833600044250488 9.124699592590332 L 5.333600044250488 9.124699592590332 L 2.666399955749512 9.124699592590332 L 2.166399955749512 9.124699592590332 Z M 11.05519962310791 4.750199794769287 L 11.05519962310791 5.250199794769287 L 11.05519962310791 7.874899864196777 L 11.05519962310791 8.374899864196777 L 11.55519962310791 8.374899864196777 L 14.22239971160889 8.374899864196777 L 14.72239971160889 8.374899864196777 L 14.72239971160889 7.874899864196777 L 14.72239971160889 5.250199794769287 L 14.72239971160889 4.750199794769287 L 14.22239971160889 4.750199794769287 L 11.55519962310791 4.750199794769287 L 11.05519962310791 4.750199794769287 Z M 6.611199855804443 4.750199794769287 L 6.611199855804443 5.250199794769287 L 6.611199855804443 7.874899864196777 L 6.611199855804443 8.374899864196777 L 7.111199855804443 8.374899864196777 L 9.777600288391113 8.374899864196777 L 10.27760028839111 8.374899864196777 L 10.27760028839111 7.874899864196777 L 10.27760028839111 5.250199794769287 L 10.27760028839111 4.750199794769287 L 9.777600288391113 4.750199794769287 L 7.111199855804443 4.750199794769287 L 6.611199855804443 4.750199794769287 Z M 2.166399955749512 4.750199794769287 L 2.166399955749512 5.250199794769287 L 2.166399955749512 7.874899864196777 L 2.166399955749512 8.374899864196777 L 2.666399955749512 8.374899864196777 L 5.333600044250488 8.374899864196777 L 5.833600044250488 8.374899864196777 L 5.833600044250488 7.874899864196777 L 5.833600044250488 5.250199794769287 L 5.833600044250488 4.750199794769287 L 5.333600044250488 4.750199794769287 L 2.666399955749512 4.750199794769287 L 2.166399955749512 4.750199794769287 Z" stroke="none"/>
        <path d="M 10.55519962310791 13 L 10.55519962310791 12.25020027160645 L 10.55519962310791 9.624699592590332 L 10.55519962310791 8.874899864196777 L 9.777600288391113 8.874899864196777 L 7.111199855804443 8.874899864196777 L 6.333600044250488 8.874899864196777 L 6.333600044250488 9.624699592590332 L 6.333600044250488 12.25020027160645 L 6.333600044250488 13 L 10.55519962310791 13 M 1.666399955749512 13 L 1.666399955749512 12.25020027160645 L 1.666399955749512 9.624699592590332 L 1.666399955749512 8.624699592590332 L 1.666399955749512 7.874899864196777 L 1.666399955749512 5.250199794769287 L 1.666399955749512 4.250199794769287 L 1.666399955749512 3.49960994720459 L 1.666399955749512 1 L 1 1 L 1 13 L 1.666399955749512 13 M 16 14 L 15.99911022186279 14 L 0 14 L 0 -8.881784197001252e-16 L 16 -8.881784197001252e-16 L 16 13.99911975860596 L 16 14 Z M 11.55519962310791 9.624699592590332 L 11.55519962310791 12.25020027160645 L 14.22239971160889 12.25020027160645 L 14.22239971160889 9.624699592590332 L 11.55519962310791 9.624699592590332 Z M 2.666399955749512 9.624699592590332 L 2.666399955749512 12.25020027160645 L 5.333600044250488 12.25020027160645 L 5.333600044250488 9.624699592590332 L 2.666399955749512 9.624699592590332 Z M 11.55519962310791 5.250199794769287 L 11.55519962310791 7.874899864196777 L 14.22239971160889 7.874899864196777 L 14.22239971160889 5.250199794769287 L 11.55519962310791 5.250199794769287 Z M 7.111199855804443 5.250199794769287 L 7.111199855804443 7.874899864196777 L 9.777600288391113 7.874899864196777 L 9.777600288391113 5.250199794769287 L 7.111199855804443 5.250199794769287 Z M 2.666399955749512 5.250199794769287 L 2.666399955749512 7.874899864196777 L 5.333600044250488 7.874899864196777 L 5.333600044250488 5.250199794769287 L 2.666399955749512 5.250199794769287 Z M 11.55519962310791 0.8748999834060669 L 11.55519962310791 3.49960994720459 L 14.22239971160889 3.49960994720459 L 14.22239971160889 0.8748999834060669 L 11.55519962310791 0.8748999834060669 Z M 7.111199855804443 0.8748999834060669 L 7.111199855804443 3.49960994720459 L 9.777600288391113 3.49960994720459 L 9.777600288391113 0.8748999834060669 L 7.111199855804443 0.8748999834060669 Z M 2.666399955749512 0.8748999834060669 L 2.666399955749512 3.49960994720459 L 5.333600044250488 3.49960994720459 L 5.333600044250488 0.8748999834060669 L 2.666399955749512 0.8748999834060669 Z" stroke="none" fill="#fff"/>
      </g>
      <g id="Rectangle_1592" data-name="Rectangle 1592" transform="translate(5851 10066)" fill="#fff" stroke="#fff" stroke-width="1">
        <rect width="18" height="2" rx="1" stroke="none"/>
        <rect x="0.5" y="0.5" width="17" height="1" rx="0.5" fill="none"/>
      </g>
      <g id="Rectangle_1593" data-name="Rectangle 1593" transform="translate(5843 10053)" fill="#fff" stroke="#fff" stroke-width="1">
        <rect width="17" height="2" rx="1" stroke="none"/>
        <rect x="0.5" y="0.5" width="16" height="1" rx="0.5" fill="none"/>
      </g>
    </g>
  </g>
</svg>
