<svg xmlns="http://www.w3.org/2000/svg" xmlns:xlink="http://www.w3.org/1999/xlink" width="43" height="43" viewBox="0 0 43 43">
  <defs>
    <clipPath id="clip-_5_Domain_restictions">
      <rect width="43" height="43"/>
    </clipPath>
  </defs>
  <g id="_5_Domain_restictions" data-name="5 Domain restictions" clip-path="url(#clip-_5_Domain_restictions)">
    <rect width="43" height="43" fill="rgba(255,255,255,0)"/>
    <g id="surface1" transform="translate(2 0)">
      <path id="Path_509" data-name="Path 509" d="M37.067,6.066,19.933.134a2.464,2.464,0,0,0-1.605,0L1.575,5.933A2.34,2.34,0,0,0,.034,8.539l3.89,22.69a2.442,2.442,0,0,0,1.006,1.586L17.768,41.8a2.376,2.376,0,0,0,2.724,0l13.036-9.125a1.874,1.874,0,0,0,.768-1.212l4-23.326A1.857,1.857,0,0,0,37.067,6.066ZM31.9,30.8,19.13,39.733,6.362,30.8,2.495,8.236,19.13,2.478,35.764,8.236Zm0,0" transform="translate(0)"/>
      <path id="Path_510" data-name="Path 510" d="M110.409,180.425a.947.947,0,0,0,.817,0,.289.289,0,0,0,.171-.264v-2.014h1.479v2.014a.288.288,0,0,0,.171.264.947.947,0,0,0,.817,0,.288.288,0,0,0,.171-.264v-4.726a.281.281,0,0,0-.171-.26.981.981,0,0,0-.817,0,.281.281,0,0,0-.171.26v1.821H111.4v-1.821a.281.281,0,0,0-.171-.26.981.981,0,0,0-.817,0,.281.281,0,0,0-.171.26v4.726A.288.288,0,0,0,110.409,180.425Zm0,0" transform="translate(-101.145 -160.644)"/>
      <path id="Path_511" data-name="Path 511" d="M162.208,176.1h1.025v4.062a.291.291,0,0,0,.171.266.941.941,0,0,0,.817,0,.291.291,0,0,0,.171-.266V176.1h1.026a.288.288,0,0,0,.256-.148.675.675,0,0,0,.093-.365.666.666,0,0,0-.089-.35.287.287,0,0,0-.26-.148h-3.21a.286.286,0,0,0-.26.148.748.748,0,0,0,0,.715A.288.288,0,0,0,162.208,176.1Zm0,0" transform="translate(-148.508 -160.644)"/>
      <path id="Path_512" data-name="Path 512" d="M210.777,175.234a.748.748,0,0,0,0,.715.288.288,0,0,0,.256.148h1.025v4.062a.291.291,0,0,0,.171.266.941.941,0,0,0,.817,0,.291.291,0,0,0,.171-.266V176.1h1.026a.288.288,0,0,0,.256-.148.746.746,0,0,0,0-.715.286.286,0,0,0-.26-.148h-3.21A.286.286,0,0,0,210.777,175.234Zm0,0" transform="translate(-193.309 -160.644)"/>
      <path id="Path_513" data-name="Path 513" d="M263.827,180.425a.947.947,0,0,0,.818,0,.289.289,0,0,0,.171-.264v-1.6h.736a2,2,0,0,0,1.327-.42,1.606,1.606,0,0,0,.5-1.3V176.8a1.621,1.621,0,0,0-.479-1.3,1.887,1.887,0,0,0-1.274-.412h-1.538a.457.457,0,0,0-.312.1.317.317,0,0,0-.119.245v4.726A.289.289,0,0,0,263.827,180.425Zm.989-4.328h.736q.668,0,.669.743v.082q0,.743-.669.743h-.736Zm0,0" transform="translate(-241.908 -160.644)"/>
      <path id="Path_514" data-name="Path 514" d="M314.04,178.965a1.006,1.006,0,0,1-.505.122,1.188,1.188,0,0,1-.762-.29,1.8,1.8,0,0,0-.253-.2.464.464,0,0,0-.249-.09.435.435,0,0,0-.353.208.7.7,0,0,0-.152.416q0,.372.535.669a2.544,2.544,0,0,0,1.256.3,2.033,2.033,0,0,0,1.345-.427,1.467,1.467,0,0,0,.513-1.193,1.692,1.692,0,0,0-.175-.78,1.474,1.474,0,0,0-.435-.532,4.406,4.406,0,0,0-.568-.349,5.721,5.721,0,0,0-.569-.26,1.607,1.607,0,0,1-.435-.241.4.4,0,0,1-.175-.312.378.378,0,0,1,.186-.316.975.975,0,0,1,.557-.13,1.44,1.44,0,0,1,.639.141,1.214,1.214,0,0,0,.379.141.377.377,0,0,0,.338-.211.812.812,0,0,0,.122-.408.452.452,0,0,0-.167-.352,1.018,1.018,0,0,0-.431-.21,3.676,3.676,0,0,0-.476-.088,3.818,3.818,0,0,0-.4-.023,2.287,2.287,0,0,0-1.345.39,1.342,1.342,0,0,0-.557,1.178,1.426,1.426,0,0,0,.242.832,1.7,1.7,0,0,0,.591.539q.349.189.695.342a2.845,2.845,0,0,1,.587.338.537.537,0,0,1,.241.431A.4.4,0,0,1,314.04,178.965Zm0,0" transform="translate(-286.05 -160.149)"/>
      <path id="Path_515" data-name="Path 515" d="M129.57,256.035H111.68a1.239,1.239,0,1,0,0,2.477h17.89a1.239,1.239,0,0,0,0-2.477Zm0,0" transform="translate(-101.331 -234.916)"/>
    </g>
  </g>
</svg>
