<svg xmlns="http://www.w3.org/2000/svg" xmlns:xlink="http://www.w3.org/1999/xlink" width="32" height="32" viewBox="0 0 32 32">
  <defs>
    <clipPath id="clip-Launcher_icon4">
      <rect width="32" height="32"/>
    </clipPath>
  </defs>
  <g id="Launcher_icon4" data-name="Launcher icon4" clip-path="url(#clip-Launcher_icon4)">
    <rect width="32" height="32" fill="rgba(255,255,255,0)"/>
    <path id="Exclusion_11" data-name="Exclusion 11" d="M-603.583-12374.139v-8.606a11.714,11.714,0,0,1-2.419-7.025,12.188,12.188,0,0,1,4.6-9.355,17.223,17.223,0,0,1,11.115-3.874,17.217,17.217,0,0,1,11.112,3.874,12.188,12.188,0,0,1,4.6,9.355,12.185,12.185,0,0,1-4.6,9.353,17.219,17.219,0,0,1-11.112,3.873,18.058,18.058,0,0,1-6.773-1.3l-6.526,3.706Zm6.509-11.561a.936.936,0,0,0-.934.937.935.935,0,0,0,.934.935h9.413a.935.935,0,0,0,.934-.935.936.936,0,0,0-.934-.937Zm0-3.741a.936.936,0,0,0-.934.937.936.936,0,0,0,.934.937H-583.9a.936.936,0,0,0,.934-.937.936.936,0,0,0-.934-.937Zm0-3.738a.935.935,0,0,0-.934.934.936.936,0,0,0,.934.937H-583.9a.936.936,0,0,0,.934-.937.935.935,0,0,0-.934-.934Z" transform="translate(606.001 12404.999)" fill="#fff"/>
  </g>
</svg>
