<svg xmlns="http://www.w3.org/2000/svg" xmlns:xlink="http://www.w3.org/1999/xlink" width="65" height="65" viewBox="0 0 65 65">
  <defs>
    <clipPath id="clip-Profile">
      <rect width="65" height="65"/>
    </clipPath>
  </defs>
  <g id="Profile" clip-path="url(#clip-Profile)">
    <rect width="65" height="65" fill="rgba(255,255,255,0)"/>
    <g id="Group_83" data-name="Group 83" transform="translate(-1782 -51)">
      <circle id="Ellipse_18" data-name="Ellipse 18" cx="30.5" cy="30.5" r="30.5" transform="translate(1784 53)" fill="#38bab2"/>
      <circle id="Ellipse_19" data-name="Ellipse 19" cx="10" cy="10" r="10" transform="translate(1806 66)" fill="#fff"/>
      <g id="Intersection_1" data-name="Intersection 1" transform="translate(1784 53)" fill="#fff">
        <path d="M 30.50009727478027 60.50020217895508 C 28.04720687866211 60.50020217895508 25.60785865783691 60.20346450805664 23.24982833862305 59.61823272705078 C 20.95979690551758 59.04988479614258 18.73633766174316 58.20734405517578 16.64119720458984 57.114013671875 C 12.64509201049805 55.02868270874023 9.118243217468262 52.01909637451172 6.419593811035156 48.39524459838867 C 9.114253997802734 45.1385612487793 12.63418483734131 42.43311309814453 16.62273788452148 40.55649185180664 C 18.71989822387695 39.56978225708008 20.94577789306641 38.80934524536133 23.23856735229492 38.29629516601563 C 25.60017776489258 37.76784515380859 28.04330825805664 37.49990463256836 30.50009727478027 37.49990463256836 C 32.95688629150391 37.49990463256836 35.40001678466797 37.76784515380859 37.76161956787109 38.29629516601563 C 40.05440902709961 38.80934524536133 42.28028869628906 39.56978225708008 44.37744903564453 40.55649185180664 C 48.36598968505859 42.43311309814453 51.88592147827148 45.1385612487793 54.58058166503906 48.39524459838867 C 51.88193130493164 52.01909637451172 48.35509490966797 55.02868270874023 44.35898590087891 57.114013671875 C 42.26385879516602 58.20734405517578 40.04038619995117 59.04988479614258 37.7503662109375 59.61823272705078 C 35.39232635498047 60.20346450805664 32.95298767089844 60.50020217895508 30.50009727478027 60.50020217895508 Z" stroke="none"/>
        <path d="M 30.50009727478027 37.99990463256836 C 28.07997894287109 37.99990463256836 25.67357635498047 38.2637825012207 23.34775924682617 38.78422164916992 C 21.09066772460938 39.28928375244141 18.89966583251953 40.03778457641602 16.83560943603516 41.0089225769043 C 13.03745651245117 42.79594802856445 9.672275543212891 45.34624862670898 7.058647155761719 48.41178512573242 C 9.680446624755859 51.83498001098633 13.05924606323242 54.68082046508789 16.87251663208008 56.67074203491211 C 18.93253707885742 57.74574279785156 21.11869812011719 58.57415390014648 23.37026596069336 59.13296508789063 C 25.68894958496094 59.70842361450195 28.0877685546875 60.00020217895508 30.50009727478027 60.00020217895508 C 32.91243743896484 60.00020217895508 35.31125640869141 59.70842361450195 37.62992858886719 59.13296508789063 C 39.88150024414063 58.57415390014648 42.06765747070313 57.74574279785156 44.12767791748047 56.67074203491211 C 47.94093322753906 54.68082809448242 51.31972885131836 51.83498382568359 53.9415283203125 48.41178512573242 C 51.32789993286133 45.34624862670898 47.96272277832031 42.79594802856445 44.16457748413086 41.0089225769043 C 42.10052490234375 40.03778457641602 39.90952682495117 39.28928375244141 37.65243530273438 38.78422164916992 C 35.32661819458008 38.2637825012207 32.92021942138672 37.99990463256836 30.50009727478027 37.99990463256836 M 30.50009727478027 36.99990463256836 C 40.66595840454102 36.99990463256836 49.67058563232422 41.48456192016602 55.21274566650391 48.37926483154297 C 49.67058563232422 56.02607345581055 40.66595840454102 61.00020217895508 30.50009727478027 61.00020217895508 C 20.33424758911133 61.00020217895508 11.32958602905273 56.02607345581055 5.787425994873047 48.37926483154297 C 11.32958602905273 41.48456192016602 20.33424758911133 36.99990463256836 30.50009727478027 36.99990463256836 Z" stroke="none" fill="#38bab2"/>
      </g>
    </g>
  </g>
</svg>
