<svg xmlns="http://www.w3.org/2000/svg" xmlns:xlink="http://www.w3.org/1999/xlink" width="35" height="35" viewBox="0 0 35 35">
  <defs>
    <clipPath id="clip-Setting">
      <rect width="35" height="35"/>
    </clipPath>
  </defs>
  <g id="Setting" clip-path="url(#clip-Setting)">
    <rect width="35" height="35" fill="rgba(255,255,255,0)"/>
    <g id="icon_setting" transform="translate(3 3)">
      <path id="Path_108" data-name="Path 108" d="M24.835,9.377,26.889,5.59,24.275,3.066,20.354,5.049A6.842,6.842,0,0,0,18.3,4.328L16.806,0H13.071L11.577,4.148a7.967,7.967,0,0,0-1.867.721L5.789,2.885,2.988,5.59,5.042,9.377a7.388,7.388,0,0,0-.747,1.8L0,12.623V16.23l4.295,1.443c.187.721.56,1.262.747,1.984L2.988,23.443,5.6,25.968l3.921-1.984a6.841,6.841,0,0,0,2.054.721l1.494,4.148h3.735L18.3,24.706c.747-.18,1.307-.541,2.054-.721l3.921,1.984,2.614-2.525-2.054-3.787a6.321,6.321,0,0,0,.747-1.984l4.295-1.443V12.623l-4.295-1.443A7.388,7.388,0,0,0,24.835,9.377Zm-9.9,10.459a5.413,5.413,0,1,1,0-10.82,5.413,5.413,0,1,1,0,10.82Z" fill="#fff"/>
    </g>
  </g>
</svg>
