<svg xmlns="http://www.w3.org/2000/svg" xmlns:xlink="http://www.w3.org/1999/xlink" width="43" height="43" viewBox="0 0 43 43">
  <defs>
    <clipPath id="clip-_3_Single_thread_conversation">
      <rect width="43" height="43"/>
    </clipPath>
  </defs>
  <g id="_3_Single_thread_conversation" data-name="3 Single thread conversation" clip-path="url(#clip-_3_Single_thread_conversation)">
    <rect width="43" height="43" fill="rgba(255,255,255,0)"/>
    <g id="chat" transform="translate(1 1)">
      <g id="Group_192" data-name="Group 192" transform="translate(0 0)">
        <g id="Group_191" data-name="Group 191" transform="translate(0 0)">
          <path id="Path_506" data-name="Path 506" d="M37.458,24.51a1.6,1.6,0,0,0-2.965,1.2l1.883,4.658L30.783,27.9a1.6,1.6,0,0,0-1.273-.008,15.417,15.417,0,0,1-6.086,1.229c-8.56,0-14.311-6.7-14.311-12.962C9.114,9.013,15.534,3.2,23.425,3.2S37.736,9.013,37.736,16.16a13.039,13.039,0,0,1-.142,1.832,1.6,1.6,0,0,0,3.163.472,16.136,16.136,0,0,0,.177-2.3A15.454,15.454,0,0,0,35.754,4.684,18.172,18.172,0,0,0,23.425,0,18.172,18.172,0,0,0,11.1,4.684a15.54,15.54,0,0,0-5.116,10.1A12.926,12.926,0,0,0,0,25.545a12.405,12.405,0,0,0,2.452,7.413L.117,38.735A1.6,1.6,0,0,0,2.244,40.8l6.734-2.968a15.217,15.217,0,0,0,5.333.95c.04,0,.079,0,.118-.006a15.134,15.134,0,0,0,7.523-2.039,13.764,13.764,0,0,0,4.837-4.71,18.4,18.4,0,0,0,3.322-.923l8.578,3.782a1.6,1.6,0,0,0,2.127-2.062ZM14.311,35.577c-.022,0-.043,0-.065,0a11.992,11.992,0,0,1-4.672-.955,1.6,1.6,0,0,0-1.272.008L4.558,36.283l1.208-2.988A1.6,1.6,0,0,0,5.5,31.658a9.333,9.333,0,0,1-2.3-6.113,9.513,9.513,0,0,1,2.956-6.812,16.141,16.141,0,0,0,4.73,8.644A17.873,17.873,0,0,0,22.517,32.3,11.751,11.751,0,0,1,14.311,35.577Z" transform="translate(0 0)"/>
          <ellipse id="Ellipse_79" data-name="Ellipse 79" cx="2" cy="1.5" rx="2" ry="1.5" transform="translate(21.933 14.932)"/>
          <circle id="Ellipse_80" data-name="Ellipse 80" cx="1.5" cy="1.5" r="1.5" transform="translate(27.933 14.932)"/>
          <circle id="Ellipse_81" data-name="Ellipse 81" cx="1.5" cy="1.5" r="1.5" transform="translate(14.933 14.932)"/>
        </g>
      </g>
    </g>
  </g>
</svg>
