<svg xmlns="http://www.w3.org/2000/svg" xmlns:xlink="http://www.w3.org/1999/xlink" width="60" height="60" viewBox="0 0 60 60">
  <defs>
    <clipPath id="clip-Teammates_Select">
      <rect width="60" height="60"/>
    </clipPath>
  </defs>
  <g id="Teammates_Select" data-name="Teammates Select" clip-path="url(#clip-Teammates_Select)">
    <rect width="60" height="60" fill="rgba(255,255,255,0)"/>
    <g id="Ellipse_31" data-name="Ellipse 31" transform="translate(2 2)" fill="none" stroke="#006768" stroke-width="3">
      <circle cx="28.5" cy="28.5" r="28.5" stroke="none"/>
      <circle cx="28.5" cy="28.5" r="27" fill="none"/>
    </g>
    <g id="Group_107" data-name="Group 107" transform="translate(-664.424 -198)">
      <circle id="Ellipse_19" data-name="Ellipse 19" cx="6" cy="6" r="6" transform="translate(689 215)" fill="#006768"/>
      <g id="Intersection_1" data-name="Intersection 1" transform="translate(681.424 228.313)" fill="#006768">
        <path d="M 13.66798210144043 12.77380275726318 C 11.03719234466553 12.77380275726318 8.422412872314453 12.13497257232666 6.106332778930664 10.92636203765869 C 3.977876424789429 9.815657615661621 2.093306064605713 8.224284172058105 0.6349402070045471 6.309768676757813 C 2.089244604110718 4.59409236907959 3.966981649398804 3.167115211486816 6.087882518768311 2.169242382049561 C 8.408902168273926 1.077212333679199 11.03006267547607 0.5000023245811462 13.66798210144043 0.5000023245811462 C 16.3059024810791 0.5000023245811462 18.92705345153809 1.077212333679199 21.24807167053223 2.169242382049561 C 23.36896324157715 3.167115211486816 25.24670028686523 4.59409236907959 26.70100402832031 6.309768676757813 C 25.24263954162598 8.224284172058105 23.35806846618652 9.815657615661621 21.22962188720703 10.92636203765869 C 18.91354179382324 12.13497257232666 16.29877281188965 12.77380275726318 13.66798210144043 12.77380275726318 Z" stroke="none"/>
        <path d="M 13.66798210144043 1.000001907348633 C 11.10317230224609 1.000001907348633 8.555622100830078 1.560762405395508 6.300743103027344 2.621672630310059 C 4.371883392333984 3.52918815612793 2.65130615234375 4.801734924316406 1.283218383789063 6.327044010162354 C 2.659782409667969 8.040836334228516 4.393844604492188 9.468741416931152 6.337652206420898 10.48308181762695 C 8.582612991333008 11.65458202362061 11.11740303039551 12.27380180358887 13.66798210144043 12.27380180358887 C 16.21856307983398 12.27380180358887 18.75334167480469 11.65458202362061 20.9983024597168 10.48308181762695 C 22.94209289550781 9.46875 24.6761531829834 8.040836334228516 26.05272483825684 6.327042579650879 C 24.68463706970215 4.801733016967773 22.96406173706055 3.52918815612793 21.03520202636719 2.621672630310059 C 18.78033256530762 1.560762405395508 16.23279190063477 1.000001907348633 13.66798210144043 1.000001907348633 M 13.66798210144043 1.9073486328125e-06 C 19.29047393798828 1.9073486328125e-06 24.27070236206055 2.480321884155273 27.3359432220459 6.293562412261963 C 24.27070236206055 10.52277183532715 19.29047393798828 13.27380275726318 13.66798210144043 13.27380275726318 C 8.045492172241211 13.27380275726318 3.06523323059082 10.52277183532715 1.9073486328125e-06 6.293562412261963 C 3.06523323059082 2.480321884155273 8.045492172241211 1.9073486328125e-06 13.66798210144043 1.9073486328125e-06 Z" stroke="none" fill="#006768"/>
      </g>
    </g>
  </g>
</svg>
