<svg xmlns="http://www.w3.org/2000/svg" xmlns:xlink="http://www.w3.org/1999/xlink" width="43" height="43" viewBox="0 0 43 43">
  <defs>
    <clipPath id="clip-_6_Text_to_speech">
      <rect width="43" height="43"/>
    </clipPath>
  </defs>
  <g id="_6_Text_to_speech" data-name="6 Text to speech" clip-path="url(#clip-_6_Text_to_speech)">
    <rect width="43" height="43" fill="rgba(255,255,255,0)"/>
    <g id="Group_213" data-name="Group 213">
      <g id="mic" transform="translate(1.009 9.154)">
        <g id="Group_202" data-name="Group 202" transform="translate(4.688)">
          <g id="Group_201" data-name="Group 201">
            <path id="Path_517" data-name="Path 517" d="M172.281,0a5.981,5.981,0,0,0-5.974,5.974V17.715a5.974,5.974,0,0,0,11.948.041V5.974A5.981,5.981,0,0,0,172.281,0Zm3.484,17.756a3.485,3.485,0,0,1-6.969-.041V5.974a3.485,3.485,0,1,1,6.969,0Z" transform="translate(-166.307 0)"/>
          </g>
        </g>
        <g id="Group_204" data-name="Group 204" transform="translate(9.417 27.256)">
          <g id="Group_203" data-name="Group 203">
            <rect id="Rectangle_1675" data-name="Rectangle 1675" width="2.489" height="5.601"/>
          </g>
        </g>
        <g id="Group_206" data-name="Group 206" transform="translate(6.14 31.612)">
          <g id="Group_205" data-name="Group 205">
            <path id="Path_518" data-name="Path 518" d="M195.906,474.628h-6.555a1.245,1.245,0,1,0,0,2.489h6.555a1.245,1.245,0,1,0,0-2.489Z" transform="translate(-188.107 -474.628)"/>
          </g>
        </g>
        <g id="Group_208" data-name="Group 208" transform="translate(0 15.64)">
          <g id="Group_207" data-name="Group 207">
            <path id="Path_519" data-name="Path 519" d="M116,234.822a1.244,1.244,0,0,0-1.245,1.245v1a8.173,8.173,0,1,1-16.346,0v-1a1.245,1.245,0,0,0-2.489,0v1a10.662,10.662,0,1,0,21.324,0v-1A1.245,1.245,0,0,0,116,234.822Z" transform="translate(-95.922 -234.822)"/>
          </g>
        </g>
      </g>
      <g id="Rectangle_1676" data-name="Rectangle 1676" transform="translate(19)" fill="none" stroke="#000" stroke-width="2">
        <rect width="24" height="18" rx="5" stroke="none"/>
        <rect x="1" y="1" width="22" height="16" rx="4" fill="none"/>
      </g>
      <g id="Ellipse_85" data-name="Ellipse 85" transform="translate(24 7)" fill="none" stroke="#000" stroke-width="1">
        <circle cx="2" cy="2" r="2" stroke="none"/>
        <circle cx="2" cy="2" r="1.5" fill="none"/>
      </g>
      <g id="Ellipse_85-2" data-name="Ellipse 85" transform="translate(29 7)" fill="none" stroke="#000" stroke-width="1">
        <circle cx="2" cy="2" r="2" stroke="none"/>
        <circle cx="2" cy="2" r="1.5" fill="none"/>
      </g>
      <g id="Ellipse_85-3" data-name="Ellipse 85" transform="translate(34 7)" fill="none" stroke="#000" stroke-width="1">
        <circle cx="2" cy="2" r="2" stroke="none"/>
        <circle cx="2" cy="2" r="1.5" fill="none"/>
      </g>
    </g>
  </g>
</svg>
