<svg xmlns="http://www.w3.org/2000/svg" xmlns:xlink="http://www.w3.org/1999/xlink" width="65" height="65" viewBox="0 0 65 65">
  <defs>
    <clipPath id="clip-Logo">
      <rect width="65" height="65"/>
    </clipPath>
  </defs>
  <g id="Logo" clip-path="url(#clip-Logo)">
    <rect width="65" height="65" fill="rgba(255,255,255,0)"/>
    <g id="Group_61" data-name="Group 61" transform="translate(-13 -21)">
      <circle id="Ellipse_17" data-name="Ellipse 17" cx="30.5" cy="30.5" r="30.5" transform="translate(15 23)" fill="#fff"/>
      <g id="Group_55" data-name="Group 55" transform="translate(-13.07 15.583)">
        <path id="Path_402" data-name="Path 402" d="M84.633,75.683H64.95l-.093-.01c-2.678-.284-7.822-2.224-8.121-7.54l0-.1V59.976a1.772,1.772,0,0,1,3.543,0v8c.226,3.374,4.272,4.075,4.879,4.16H84.633a1.772,1.772,0,1,1,0,3.543" transform="translate(-9.78 -25.539)" fill="#00a79d"/>
        <path id="Path_401" data-name="Path 401" d="M48.215,46.255a1.772,1.772,0,0,1-1.772-1.772V36.076c-.226-3.374-4.272-4.075-4.879-4.16H30.416a1.772,1.772,0,1,1,0-3.543H41.77l.093.01c2.678.284,7.822,2.224,8.122,7.54l0,.1v8.462a1.772,1.772,0,0,1-1.772,1.772" transform="translate(12.426 -1.955)" fill="#f26522"/>
        <path id="Path_403" data-name="Path 403" d="M145.44,31.915h-10a1.772,1.772,0,0,1,0-3.543h10a1.772,1.772,0,0,1,0,3.543" transform="translate(-70.602 -1.955)" fill="#00a79d"/>
      </g>
    </g>
  </g>
</svg>
